<?xml version="1.0" encoding="UTF-8"?>
<svg version="1.1" xmlns="http://www.w3.org/2000/svg" width="1200" height="600">
<path d="M0 0 C396 0 792 0 1200 0 C1200 164.01 1200 328.02 1200 497 C804 497 408 497 0 497 C0 332.99 0 168.98 0 0 Z M25 25 C25 172.51 25 320.02 25 472 C404.5 472 784 472 1175 472 C1175 324.49 1175 176.98 1175 25 C795.5 25 416 25 25 25 Z " fill="#000C7B" transform="translate(0,57)"/>
<path d="M0 0 C0.84753845 -0.00189835 1.6950769 -0.00379669 2.56829834 -0.00575256 C5.36634606 -0.00945387 8.16413361 0.00123252 10.9621582 0.01245117 C12.90460683 0.01364318 14.84705603 0.01409609 16.789505 0.01383972 C20.85726537 0.01540333 24.92493758 0.02368552 28.99267578 0.03710938 C34.21860206 0.05413293 39.44443174 0.05792269 44.6703825 0.05716419 C48.67909169 0.05743543 52.68777958 0.06290866 56.6964817 0.07016563 C58.62429455 0.07335714 60.55210981 0.07532083 62.47992516 0.07605934 C65.1663466 0.0782159 67.85266336 0.08694419 70.5390625 0.09765625 C71.3426973 0.09720306 72.14633209 0.09674988 72.97431946 0.09628296 C78.46096251 0.12844298 78.46096251 0.12844298 79.57543945 1.24291992 C80.67211129 8.63032242 80.71127052 15.92480635 80.68896484 23.38183594 C80.68911087 24.67062149 80.6892569 25.95940704 80.68940735 27.2872467 C80.6896924 30.79488056 80.68384317 34.30247972 80.67683339 37.81010556 C80.67055096 41.4856201 80.6699922 45.16113558 80.66880798 48.83665466 C80.66570902 55.78497533 80.65751509 62.73328013 80.64745849 69.68159384 C80.63625265 77.59700645 80.63077567 85.51241986 80.62576306 93.42783844 C80.61533118 109.69954154 80.5977597 125.9712287 80.57543945 142.24291992 C80.97375977 141.70022461 81.37208008 141.1575293 81.7824707 140.59838867 C82.57717773 139.52524414 82.57717773 139.52524414 83.38793945 138.43041992 C83.91000977 137.72272461 84.43208008 137.0150293 84.9699707 136.28588867 C86.57543945 134.24291992 86.57543945 134.24291992 88.2121582 132.66870117 C89.83570636 131.17389118 89.83570636 131.17389118 90.57543945 128.24291992 C91.23543945 128.24291992 91.89543945 128.24291992 92.57543945 128.24291992 C92.84356445 127.54166992 93.11168945 126.84041992 93.38793945 126.11791992 C94.64358436 123.07793752 96.07779068 120.17014252 97.57543945 117.24291992 C98.23543945 117.24291992 98.89543945 117.24291992 99.57543945 117.24291992 C100.00276367 116.38053711 100.00276367 116.38053711 100.4387207 115.50073242 C103.80245239 108.81950591 107.59734298 102.67365754 111.9465332 96.58666992 C114.04441346 93.56813717 115.79014504 90.45644987 117.57543945 87.24291992 C120.53594644 82.24452971 123.74757118 77.57059791 127.34106445 73.00463867 C128.76449912 71.15140429 128.76449912 71.15140429 129.57543945 68.24291992 C130.23543945 68.24291992 130.89543945 68.24291992 131.57543945 68.24291992 C131.90543945 66.59291992 132.23543945 64.94291992 132.57543945 63.24291992 C133.23543945 63.24291992 133.89543945 63.24291992 134.57543945 63.24291992 C134.84356445 62.33541992 135.11168945 61.42791992 135.38793945 60.49291992 C136.47675577 57.51300158 137.43935046 55.55701633 139.57543945 53.24291992 C140.23543945 53.24291992 140.89543945 53.24291992 141.57543945 53.24291992 C141.61668945 52.58291992 141.65793945 51.92291992 141.70043945 51.24291992 C142.80158557 47.46756181 144.77413348 45.06283103 147.20043945 42.01245117 C148.63707597 40.28270221 148.63707597 40.28270221 149.57543945 38.24291992 C150.23543945 38.24291992 150.89543945 38.24291992 151.57543945 38.24291992 C151.66954102 37.68088867 151.76364258 37.11885742 151.8605957 36.53979492 C152.75138036 33.67760161 154.16415827 31.84521531 156.01293945 29.49291992 C156.63040039 28.69370117 157.24786133 27.89448242 157.8840332 27.07104492 C158.7212793 26.16612305 158.7212793 26.16612305 159.57543945 25.24291992 C160.23543945 25.24291992 160.89543945 25.24291992 161.57543945 25.24291992 C161.83325195 24.64995117 162.09106445 24.05698242 162.35668945 23.44604492 C163.67313841 21.06631027 165.00124727 19.733132 167.07543945 17.99291992 C167.68387695 17.47213867 168.29231445 16.95135742 168.91918945 16.41479492 C170.57543945 15.24291992 170.57543945 15.24291992 172.57543945 15.24291992 C172.57543945 14.58291992 172.57543945 13.92291992 172.57543945 13.24291992 C174.34299472 12.40265596 176.11461208 11.5709327 177.88793945 10.74291992 C178.87407227 10.27885742 179.86020508 9.81479492 180.8762207 9.33666992 C183.57543945 8.24291992 183.57543945 8.24291992 186.57543945 8.24291992 C186.57543945 7.58291992 186.57543945 6.92291992 186.57543945 6.24291992 C193.61144693 3.81618415 200.17283201 2.74964603 207.57543945 2.24291992 C208.93051377 2.08380135 210.28475145 1.91735431 211.63793945 1.74291992 C225.02566571 0.24618464 238.54655991 0.05629512 252.00390625 0.05761719 C254.56371433 0.05537546 257.12312583 0.03695939 259.68286133 0.01831055 C261.32283384 0.01538504 262.96280835 0.01339462 264.6027832 0.01245117 C265.74166237 0.0016729 265.74166237 0.0016729 266.90354919 -0.00932312 C270.67517348 0.00719573 272.3566771 0.09707835 275.57543945 2.24291992 C275.57543945 3.56291992 275.57543945 4.88291992 275.57543945 6.24291992 C274.91543945 6.24291992 274.25543945 6.24291992 273.57543945 6.24291992 C272.91543945 7.89291992 272.25543945 9.54291992 271.57543945 11.24291992 C270.91543945 11.24291992 270.25543945 11.24291992 269.57543945 11.24291992 C269.3021582 11.96995117 269.02887695 12.69698242 268.74731445 13.44604492 C265.86282208 20.33036671 261.43236219 26.54105911 257.2668457 32.70776367 C255.20487238 35.79834263 253.20193442 38.92553977 251.20043945 42.05541992 C248.27267125 46.63314871 245.29689686 51.17185751 242.26293945 55.68041992 C240.1568077 58.81872339 238.11100428 61.94580426 236.26293945 65.24291992 C234.84383087 67.76577963 233.3045539 69.93743399 231.57543945 72.24291992 C231.24543945 73.23291992 230.91543945 74.22291992 230.57543945 75.24291992 C229.91543945 75.24291992 229.25543945 75.24291992 228.57543945 75.24291992 C228.30731445 75.96479492 228.03918945 76.68666992 227.76293945 77.43041992 C226.57642584 80.24058375 225.30058307 82.72708549 223.57543945 85.24291992 C222.91543945 85.24291992 222.25543945 85.24291992 221.57543945 85.24291992 C220.91543945 87.55291992 220.25543945 89.86291992 219.57543945 92.24291992 C218.91543945 92.24291992 218.25543945 92.24291992 217.57543945 92.24291992 C217.57543945 93.23291992 217.57543945 94.22291992 217.57543945 95.24291992 C216.91543945 95.24291992 216.25543945 95.24291992 215.57543945 95.24291992 C215.20418945 96.29479492 215.20418945 96.29479492 214.82543945 97.36791992 C213.41255843 100.61754628 211.56704815 103.31774464 209.57543945 106.24291992 C208.88114566 107.56207812 208.2001345 108.88941399 207.57543945 110.24291992 C206.91543945 110.24291992 206.25543945 110.24291992 205.57543945 110.24291992 C205.31891602 110.96092773 205.06239258 111.67893555 204.7980957 112.41870117 C203.50123724 115.41431993 201.92597572 117.79050975 200.01293945 120.43041992 C197.60343306 123.72170315 197.60343306 123.72170315 195.57543945 127.24291992 C194.91543945 127.24291992 194.25543945 127.24291992 193.57543945 127.24291992 C193.30731445 127.82041992 193.03918945 128.39791992 192.76293945 128.99291992 C191.54614756 131.29842035 190.27210066 133.26348185 188.57543945 135.24291992 C187.91543945 135.24291992 187.25543945 135.24291992 186.57543945 135.24291992 C186.36918945 135.77916992 186.16293945 136.31541992 185.95043945 136.86791992 C184.04293519 140.16270001 181.52724561 142.8365562 178.57543945 145.24291992 C177.91543945 145.24291992 177.25543945 145.24291992 176.57543945 145.24291992 C176.57543945 145.90291992 176.57543945 146.56291992 176.57543945 147.24291992 C174.4230957 148.68041992 174.4230957 148.68041992 171.63793945 150.24291992 C167.95156737 152.10369887 167.95156737 152.10369887 165.57543945 155.24291992 C166.13231445 155.52264648 166.68918945 155.80237305 167.26293945 156.09057617 C172.97371408 159.09066216 178.16737639 162.47452473 182.57543945 167.24291992 C182.57543945 167.90291992 182.57543945 168.56291992 182.57543945 169.24291992 C183.23543945 169.24291992 183.89543945 169.24291992 184.57543945 169.24291992 C186.20043945 170.61791992 186.20043945 170.61791992 187.57543945 172.24291992 C187.57543945 172.90291992 187.57543945 173.56291992 187.57543945 174.24291992 C188.23543945 174.24291992 188.89543945 174.24291992 189.57543945 174.24291992 C190.94262695 175.81713867 190.94262695 175.81713867 192.45043945 177.93041992 C194.17764021 180.31740297 195.90170601 182.6437617 197.76293945 184.93041992 C199.59786275 187.27152896 201.04662869 189.69490198 202.57543945 192.24291992 C203.29731445 193.10916992 204.01918945 193.97541992 204.76293945 194.86791992 C206.57543945 197.24291992 206.57543945 197.24291992 206.57543945 200.24291992 C207.23543945 200.24291992 207.89543945 200.24291992 208.57543945 200.24291992 C211.57543945 204.62753531 211.57543945 204.62753531 211.57543945 207.24291992 C212.23543945 207.24291992 212.89543945 207.24291992 213.57543945 207.24291992 C213.8177832 207.75081055 214.06012695 208.25870117 214.30981445 208.78198242 C215.97608746 212.20425083 217.65448046 215.48553623 219.82543945 218.61791992 C221.57543945 221.24291992 221.57543945 221.24291992 221.57543945 223.24291992 C222.23543945 223.24291992 222.89543945 223.24291992 223.57543945 223.24291992 C223.86676758 223.78819336 224.1580957 224.3334668 224.45825195 224.89526367 C227.19649255 229.93259307 230.14987509 234.69809627 233.4387207 239.39526367 C234.57543945 241.24291992 234.57543945 241.24291992 234.57543945 243.24291992 C235.23543945 243.24291992 235.89543945 243.24291992 236.57543945 243.24291992 C237.02918945 244.19166992 237.48293945 245.14041992 237.95043945 246.11791992 C239.37782199 249.24605671 239.37782199 249.24605671 241.57543945 251.24291992 C241.57543945 252.23291992 241.57543945 253.22291992 241.57543945 254.24291992 C242.23543945 254.24291992 242.89543945 254.24291992 243.57543945 254.24291992 C244.86450195 255.88745117 244.86450195 255.88745117 246.20043945 258.05541992 C246.64645508 258.76311523 247.0924707 259.47081055 247.55200195 260.19995117 C248.57543945 262.24291992 248.57543945 262.24291992 248.57543945 265.24291992 C249.56543945 265.57291992 250.55543945 265.90291992 251.57543945 266.24291992 C252.9621582 268.23901367 252.9621582 268.23901367 254.26293945 270.68041992 C254.69993164 271.48350586 255.13692383 272.2865918 255.5871582 273.11401367 C256.57543945 275.24291992 256.57543945 275.24291992 256.57543945 277.24291992 C257.23543945 277.24291992 257.89543945 277.24291992 258.57543945 277.24291992 C259.4139275 278.6982956 260.2460788 280.15732365 261.07543945 281.61791992 C261.53950195 282.4300293 262.00356445 283.24213867 262.48168945 284.07885742 C263.57543945 286.24291992 263.57543945 286.24291992 263.57543945 288.24291992 C264.23543945 288.24291992 264.89543945 288.24291992 265.57543945 288.24291992 C266.94262695 290.21948242 266.94262695 290.21948242 268.45043945 292.86791992 C270.19964202 295.90646099 271.95231588 298.84437005 274.01293945 301.68041992 C274.52856445 302.52604492 275.04418945 303.37166992 275.57543945 304.24291992 C274.57543945 307.24291992 274.57543945 307.24291992 272.57543945 308.24291992 C270.94100332 308.34851767 269.3023478 308.39167209 267.66455078 308.40405273 C266.63779739 308.41366028 265.61104401 308.42326782 264.55317688 308.4331665 C262.87230232 308.43954132 262.87230232 308.43954132 261.1574707 308.44604492 C259.99406662 308.451745 258.83066254 308.45744507 257.63200378 308.46331787 C255.15116284 308.47279166 252.67030918 308.47931124 250.18945312 308.4831543 C246.47607554 308.49269351 242.76329232 308.52362122 239.05004883 308.55541992 C227.54193167 308.60750114 216.20107123 308.37699412 204.7746582 306.91479492 C203.8558638 306.79807434 202.9370694 306.68135376 201.99043274 306.56109619 C196.47725773 305.7648291 191.72900018 304.35301731 186.57543945 302.24291992 C185.26527306 301.79848035 183.9529964 301.36017302 182.63793945 300.93041992 C177.87500303 299.15023693 173.48537416 296.49214807 169.57543945 293.24291992 C169.57543945 292.58291992 169.57543945 291.92291992 169.57543945 291.24291992 C168.99793945 291.16041992 168.42043945 291.07791992 167.82543945 290.99291992 C164.92150585 290.02494205 163.53803341 288.55597709 161.57543945 286.24291992 C161.57543945 285.58291992 161.57543945 284.92291992 161.57543945 284.24291992 C160.58543945 283.91291992 159.59543945 283.58291992 158.57543945 283.24291992 C158.57543945 282.58291992 158.57543945 281.92291992 158.57543945 281.24291992 C157.91543945 281.24291992 157.25543945 281.24291992 156.57543945 281.24291992 C154.85180123 278.72928085 153.61775017 276.35927439 152.57543945 273.49291992 C152.24543945 272.75041992 151.91543945 272.00791992 151.57543945 271.24291992 C150.58543945 270.91291992 149.59543945 270.58291992 148.57543945 270.24291992 C144.57543945 264.98577706 144.57543945 264.98577706 144.57543945 261.24291992 C143.91543945 261.24291992 143.25543945 261.24291992 142.57543945 261.24291992 C141.13012695 259.29370117 141.13012695 259.29370117 139.45043945 256.55541992 C138.83426758 255.56155273 138.2180957 254.56768555 137.58325195 253.54370117 C136.55980893 251.8611927 135.5364733 250.1786168 134.51586914 248.49438477 C133.80273601 247.31761776 133.08838788 246.14158616 132.37280273 244.96630859 C131.36727613 243.31176028 130.3696201 241.65243651 129.37231445 239.99291992 C127.88559901 237.7175989 126.50983778 236.10016276 124.57543945 234.24291992 C121.57543945 228.79847548 121.57543945 228.79847548 121.57543945 226.24291992 C120.91543945 226.24291992 120.25543945 226.24291992 119.57543945 226.24291992 C119.57543945 225.25291992 119.57543945 224.26291992 119.57543945 223.24291992 C118.91543945 223.24291992 118.25543945 223.24291992 117.57543945 223.24291992 C117.20418945 222.43854492 116.83293945 221.63416992 116.45043945 220.80541992 C114.23763857 216.35864303 111.37368928 212.33506799 108.57543945 208.24291992 C107.91543945 207.25291992 107.25543945 206.26291992 106.57543945 205.24291992 C106.11266602 204.56616211 105.64989258 203.8894043 105.1730957 203.19213867 C102.31194198 198.97685112 99.85612512 194.80429125 97.57543945 190.24291992 C96.91543945 189.91291992 96.25543945 189.58291992 95.57543945 189.24291992 C92.57543945 183.819843 92.57543945 183.819843 92.57543945 181.24291992 C91.91543945 181.24291992 91.25543945 181.24291992 90.57543945 181.24291992 C90.08043945 178.76791992 90.08043945 178.76791992 89.57543945 176.24291992 C88.91543945 176.24291992 88.25543945 176.24291992 87.57543945 176.24291992 C86.28637695 174.78198242 86.28637695 174.78198242 84.95043945 172.86791992 C84.50442383 172.24143555 84.0584082 171.61495117 83.59887695 170.96948242 C82.57543945 169.24291992 82.57543945 169.24291992 82.57543945 167.24291992 C81.91543945 167.24291992 81.25543945 167.24291992 80.57543945 167.24291992 C80.57636125 167.94621587 80.57728304 168.64951181 80.57823277 169.37411976 C80.60030205 186.47448704 80.61685788 203.57485071 80.62725163 220.67522907 C80.63241135 228.94478682 80.63944792 237.21433507 80.65087891 245.48388672 C80.66083559 252.6903044 80.66729524 259.89671521 80.66952795 267.10313958 C80.67083337 270.92006448 80.67390867 274.73696971 80.68116951 278.55388832 C80.68794522 282.14479927 80.69005323 285.73568239 80.68854713 289.32659912 C80.68895441 291.27622329 80.69434155 293.22584441 80.69985962 295.17546082 C80.69848495 296.33232391 80.69711029 297.48918701 80.69569397 298.68110657 C80.69661576 299.6886263 80.69753756 300.69614603 80.69848728 301.73419666 C80.57543945 304.24291992 80.57543945 304.24291992 79.57543945 307.24291992 C73.73697137 307.99089788 68.01817462 308.38877771 62.1340332 308.37231445 C60.94941246 308.37494293 60.94941246 308.37494293 59.74085999 308.37762451 C57.16486327 308.38197943 54.5889367 308.37913 52.01293945 308.37573242 C50.21215807 308.37640675 48.41137678 308.37737785 46.6105957 308.37863159 C42.85521571 308.38009946 39.09985963 308.37798138 35.34448242 308.37329102 C30.52114487 308.36756125 25.69786256 308.37089886 20.87452698 308.37686348 C17.16521788 308.38046572 13.45592203 308.37933264 9.74661255 308.37673569 C7.9667256 308.37606718 6.18683746 308.37689219 4.4069519 308.37921524 C1.93183154 308.38173976 -0.54319707 308.37790557 -3.01831055 308.37231445 C-4.12782326 308.3753508 -4.12782326 308.3753508 -5.25975037 308.37844849 C-10.31029086 308.35718961 -10.31029086 308.35718961 -11.42456055 307.24291992 C-12.67268463 299.84980568 -12.56427051 292.31306332 -12.54481506 284.84103394 C-12.54566949 283.62784174 -12.54652391 282.41464955 -12.54740423 281.16469395 C-12.5487592 277.82380097 -12.54566203 274.48296748 -12.54062617 271.14208174 C-12.53628611 267.52940853 -12.53777061 263.91673698 -12.53852844 260.30406189 C-12.53905143 254.05364426 -12.53592818 247.80323711 -12.5302906 241.55282211 C-12.52214507 232.51589999 -12.51955726 223.4789829 -12.51830261 214.44205751 C-12.51611689 199.77834471 -12.50946981 185.1146375 -12.5 170.45092773 C-12.49081348 156.21101916 -12.48373871 141.97111211 -12.47949219 127.73120117 C-12.47922946 126.85266471 -12.47896674 125.97412825 -12.47869606 125.06896947 C-12.47739097 120.66137481 -12.47612727 116.25378013 -12.47488415 111.84618545 C-12.46452647 75.31175967 -12.44692121 38.77734023 -12.42456055 2.24291992 C-8.30487421 -0.05650863 -4.62406502 -0.03258049 0 0 Z " fill="#000C7B" transform="translate(92.424560546875,150.757080078125)"/>
<path d="M0 0 C1.6747088 -0.00107457 3.34941724 -0.00301583 5.02412415 -0.00575256 C9.54415336 -0.01057283 14.06408285 -0.0029831 18.58410001 0.00720048 C23.31883703 0.01601646 28.05357126 0.01422292 32.78831482 0.01383972 C40.72770854 0.01477405 48.66706386 0.02343116 56.60644531 0.03710938 C65.79521411 0.05288117 74.98394104 0.05810569 84.1727224 0.05737382 C93.01472529 0.05676464 101.85671451 0.0618569 110.6987133 0.07016563 C114.46306401 0.07370257 118.22740988 0.07552944 121.99176216 0.07605934 C126.4134329 0.07706012 130.83506817 0.08313478 135.25672722 0.09322548 C136.88338377 0.09615754 138.5100444 0.09737443 140.13670349 0.09679794 C142.34728254 0.09631075 144.55776074 0.10192788 146.76832581 0.10920715 C148.00805429 0.110883 149.24778276 0.11255884 150.52507877 0.11428547 C153.27514648 0.24291992 153.27514648 0.24291992 154.27514648 1.24291992 C154.37416598 2.58783018 154.40436887 3.93788738 154.40657425 5.28643608 C154.41041539 6.16294252 154.41425654 7.03944896 154.41821408 7.94251621 C154.4173476 8.91650997 154.41648112 9.89050373 154.41558838 10.89401245 C154.4185595 11.9202444 154.42153062 12.94647635 154.42459178 14.00380623 C154.43332111 17.47137694 154.43479062 20.93891329 154.4362793 24.40649414 C154.44090468 26.88137385 154.44592896 29.35625283 154.45132446 31.83113098 C154.46448222 38.57746429 154.47093715 45.32378405 154.47533512 52.07012701 C154.47809572 56.28392634 154.48233295 60.49772337 154.48683929 64.71152115 C154.49903894 76.37982222 154.5093343 88.04812144 154.51271439 99.71642876 C154.51304374 100.83768377 154.51304374 100.83768377 154.51337974 101.9815904 C154.51359802 102.73089409 154.51381629 103.48019778 154.51404119 104.25220764 C154.51448465 105.77059611 154.51493121 107.28898458 154.51538086 108.80737305 C154.515713 109.93713498 154.515713 109.93713498 154.51605186 111.08972038 C154.51999393 123.27488895 154.53742673 135.45999749 154.56074038 147.6451429 C154.58448706 160.15785737 154.59691788 172.67054179 154.5980823 185.18327916 C154.59899763 192.20751466 154.60471313 199.23167213 154.62290192 206.25588608 C154.63996746 212.86977751 154.64153066 219.48354743 154.63276291 226.09746361 C154.6319932 228.52135934 154.63632653 230.94526306 154.64622116 233.36913872 C154.65896693 236.68693093 154.65304902 240.00420183 154.64263916 243.32199097 C154.65472377 244.74952078 154.65472377 244.74952078 154.66705251 246.20588958 C154.54360578 263.11388169 146.38537779 278.1782302 134.54077148 289.96948242 C131.96149607 292.25507796 130.80430869 293.24291992 127.27514648 293.24291992 C127.27514648 293.90291992 127.27514648 294.56291992 127.27514648 295.24291992 C125.81977081 296.08140797 124.36074275 296.91355927 122.90014648 297.74291992 C122.08803711 298.20698242 121.27592773 298.67104492 120.43920898 299.14916992 C118.27514648 300.24291992 118.27514648 300.24291992 116.27514648 300.24291992 C116.27514648 300.90291992 116.27514648 301.56291992 116.27514648 302.24291992 C113.63514648 302.57291992 110.99514648 302.90291992 108.27514648 303.24291992 C108.27514648 303.90291992 108.27514648 304.56291992 108.27514648 305.24291992 C105.77889294 305.9071458 103.27969817 306.54881832 100.77514648 307.18041992 C100.09838867 307.36282227 99.42163086 307.54522461 98.72436523 307.7331543 C85.90203562 310.90985758 72.13200633 310.39335182 59.00244141 310.38818359 C57.44831768 310.39118589 55.89419469 310.39459082 54.34007263 310.39836121 C50.17565816 310.40708306 46.0112643 310.40953386 41.84684157 310.41017699 C39.24094862 310.4108927 36.63506076 310.41303646 34.02916908 310.41567421 C24.92878516 310.42487866 15.82841577 310.42901407 6.72802734 310.42822266 C-1.74625258 310.42761873 -10.2204695 310.43824441 -18.69473344 310.45396632 C-25.99186083 310.46702097 -33.2889675 310.47240764 -40.58610648 310.47176725 C-44.93601095 310.47151224 -49.28585893 310.47436665 -53.63575172 310.4849453 C-57.71280239 310.49459469 -61.78974201 310.4947274 -65.86679649 310.48742867 C-67.36361732 310.48637984 -68.86044497 310.48876326 -70.35725403 310.49478912 C-72.39597713 310.50246767 -74.43473785 310.4966837 -76.47346497 310.49015808 C-77.61506482 310.49070285 -78.75666468 310.49124762 -79.93285847 310.49180889 C-82.72485352 310.24291992 -82.72485352 310.24291992 -85.72485352 308.24291992 C-86.09975034 306.41173565 -86.09975034 306.41173565 -86.09958363 304.14161873 C-86.10679017 303.27767152 -86.11399671 302.41372431 -86.12142164 301.52359688 C-86.11404735 300.56876188 -86.10667307 299.61392687 -86.09907532 298.63015747 C-86.10304972 297.62011087 -86.10702413 296.61006428 -86.11111897 295.5694102 C-86.12079395 292.16242542 -86.10889201 288.75585053 -86.09716797 285.34887695 C-86.09959437 282.9148798 -86.1033122 280.48088365 -86.10823059 278.04689026 C-86.11668695 272.10608496 -86.11110001 266.16544193 -86.09896765 260.22465523 C-86.08535617 253.30151998 -86.08698505 246.37841371 -86.08910098 239.45526849 C-86.0922943 227.09246859 -86.08060825 214.72972619 -86.06103516 202.36694336 C-86.04207084 190.38548019 -86.03493641 178.40408453 -86.04052734 166.42260742 C-86.04659777 153.37500989 -86.04638181 140.32744211 -86.03504151 127.27984703 C-86.03383427 125.88552785 -86.03262829 124.49120867 -86.03142357 123.0968895 C-86.03082003 122.41090456 -86.03021649 121.72491963 -86.02959466 121.01814727 C-86.02572696 116.20020637 -86.02610485 111.38227657 -86.02800941 106.56433487 C-86.0303649 100.06205615 -86.02173265 93.55984506 -86.00594902 87.05758476 C-86.00172181 84.67604237 -86.00084504 82.29449121 -86.00363922 79.9129467 C-86.03291794 50.48250183 -86.03291794 50.48250183 -80.91235352 40.93041992 C-80.38512695 39.94686523 -79.85790039 38.96331055 -79.31469727 37.94995117 C-76.81707023 33.69723488 -74.22895961 29.74702601 -70.72485352 26.24291992 C-69.98235352 25.43854492 -69.98235352 25.43854492 -69.22485352 24.61791992 C-67.72485352 23.24291992 -67.72485352 23.24291992 -65.72485352 23.24291992 C-65.72485352 22.25291992 -65.72485352 21.26291992 -65.72485352 20.24291992 C-63.54516602 18.78588867 -63.54516602 18.78588867 -60.72485352 17.24291992 C-58.14114972 15.40919702 -55.58357794 13.54347296 -53.02954102 11.66870117 C-50.72485352 10.24291992 -50.72485352 10.24291992 -47.72485352 10.24291992 C-47.72485352 9.58291992 -47.72485352 8.92291992 -47.72485352 8.24291992 C-43.05818685 6.90958659 -38.39152018 5.57625326 -33.72485352 4.24291992 C-32.62270508 3.9103418 -31.52055664 3.57776367 -30.38500977 3.23510742 C-20.15502835 0.46198546 -10.53905193 -0.03942295 0 0 Z M-11.72485352 64.24291992 C-11.72485352 124.63291992 -11.72485352 185.02291992 -11.72485352 247.24291992 C18.63514648 247.24291992 48.99514648 247.24291992 80.27514648 247.24291992 C80.27514648 186.52291992 80.27514648 125.80291992 80.27514648 63.24291992 C32.65626779 56.88523972 32.65626779 56.88523972 -11.72485352 64.24291992 Z " fill="#000C7B" transform="translate(618.724853515625,148.757080078125)"/>
<path d="M0 0 C0.98220457 -0.00282297 1.96440914 -0.00564594 2.97637749 -0.00855446 C4.05176844 -0.00652708 5.12715939 -0.0044997 6.23513794 -0.00241089 C7.37789751 -0.00413488 8.52065708 -0.00585888 9.69804573 -0.00763512 C13.52829511 -0.01200202 17.35850119 -0.00901579 21.18875122 -0.00582886 C23.21933227 -0.00627784 25.24991188 -0.00747596 27.28049254 -0.00877833 C35.32880629 -0.01390436 43.37709664 -0.0093565 51.42540741 -0.00199127 C55.23410598 0.00148116 59.04280405 0.00376176 62.85150373 0.00558746 C105.0471104 0.02582401 147.24189713 0.1406891 189.43628693 0.47486115 C193.0046208 0.50194991 196.57296282 0.52557874 200.1413269 0.54830933 C205.71370972 0.58446675 211.28591975 0.63059392 216.8581543 0.68492126 C218.87892024 0.70328822 220.89971739 0.71854195 222.92053223 0.73036194 C225.66620027 0.74719014 228.41148619 0.77608802 231.15701294 0.80813599 C231.94145216 0.81029554 232.72589138 0.8124551 233.53410149 0.8146801 C240.70586468 0.92250984 247.43048939 2.38922753 254.19656372 4.75198364 C255.32771606 5.14256958 255.32771606 5.14256958 256.48171997 5.54104614 C257.29963013 5.83108521 257.29963013 5.83108521 258.13406372 6.12698364 C258.13406372 6.78698364 258.13406372 7.44698364 258.13406372 8.12698364 C259.34062622 8.18885864 259.34062622 8.18885864 260.57156372 8.25198364 C264.82886172 9.29763578 267.55716437 11.21853782 271.08328247 13.75198364 C273.18142657 15.29035818 273.18142657 15.29035818 276.13406372 16.12698364 C277.82494594 18.10655307 279.49236844 20.1064356 281.13406372 22.12698364 C281.79406372 22.45698364 282.45406372 22.78698364 283.13406372 23.12698364 C283.13406372 23.78698364 283.13406372 24.44698364 283.13406372 25.12698364 C283.79406372 25.12698364 284.45406372 25.12698364 285.13406372 25.12698364 C285.13406372 25.78698364 285.13406372 26.44698364 285.13406372 27.12698364 C285.79406372 27.12698364 286.45406372 27.12698364 287.13406372 27.12698364 C288.75515747 29.35745239 288.75515747 29.35745239 290.57156372 32.31448364 C291.16839966 33.27741333 291.7652356 34.24034302 292.38015747 35.23245239 C292.95894653 36.18764771 293.5377356 37.14284302 294.13406372 38.12698364 C294.90556763 39.33161255 294.90556763 39.33161255 295.69265747 40.56057739 C297.4104259 43.61904314 298.58083291 46.69860034 299.75906372 50.00198364 C300.18445435 51.17503052 300.60984497 52.34807739 301.04812622 53.55667114 C302.12250692 57.08898755 302.648945 60.47486349 303.13406372 64.12698364 C303.46406372 64.45698364 303.79406372 64.78698364 304.13406372 65.12698364 C304.20632874 66.97985866 304.21787592 68.83532242 304.19656372 70.68948364 C304.18754028 71.70139771 304.17851685 72.71331177 304.16921997 73.75588989 C304.15181763 74.9295813 304.15181763 74.9295813 304.13406372 76.12698364 C272.22725497 92.08038802 232.80696037 78.12698364 197.13406372 78.12698364 C197.13406372 153.69698364 197.13406372 229.26698364 197.13406372 307.12698364 C195.81406372 307.45698364 194.49406372 307.78698364 193.13406372 308.12698364 C192.32968872 308.33323364 191.52531372 308.53948364 190.69656372 308.75198364 C188.13406372 309.12698364 188.13406372 309.12698364 185.88406372 308.62698364 C182.59740806 308.02940989 179.89772579 308.44221406 176.60671997 308.86526489 C171.65811498 309.38905089 166.50833094 309.66119377 161.63406372 308.56448364 C158.2636897 307.97466819 155.21348199 308.47634527 151.82937622 308.86526489 C145.76193671 309.45442206 140.10028183 309.32022726 134.13406372 308.12698364 C133.30906372 308.29198364 132.48406372 308.45698364 131.63406372 308.62698364 C129.13406372 309.12698364 129.13406372 309.12698364 126.94656372 308.62698364 C124.11005619 308.12271564 122.10056773 308.28307998 119.25906372 308.62698364 C114.94556954 309.13711245 111.38580463 308.95884599 107.13406372 308.12698364 C105.52769042 303.16759259 104.88323463 299.00467907 104.88009644 293.74005127 C104.87697645 293.02988228 104.87385647 292.31971328 104.87064195 291.58802402 C104.86271228 289.226087 104.86896581 286.86441051 104.87527466 284.50247192 C104.87256251 282.80177664 104.86900032 281.10108252 104.86465454 279.40039062 C104.85555354 274.79288036 104.85906573 270.18545988 104.86541271 265.57794809 C104.8704862 260.74817067 104.86577736 255.91840078 104.86264038 251.08862305 C104.85900397 242.97655868 104.86379058 234.86453075 104.87332153 226.75247192 C104.88419811 217.38724534 104.88068498 208.02210591 104.86966872 198.65688145 C104.86057782 190.60485406 104.8593196 182.55285282 104.86454606 174.50082195 C104.86765679 169.69676275 104.86809994 164.89274443 104.86147308 160.0886879 C104.85567428 155.56933411 104.85974276 151.05009206 104.8712616 146.53075027 C104.87389497 144.87681768 104.87316582 143.2228756 104.86873627 141.56894684 C104.81973564 121.40593839 104.81973564 121.40593839 110.25906372 112.06448364 C110.79789185 111.12475708 111.33671997 110.18503052 111.89187622 109.21682739 C112.3017981 108.52717896 112.71171997 107.83753052 113.13406372 107.12698364 C113.79406372 107.12698364 114.45406372 107.12698364 115.13406372 107.12698364 C115.13406372 106.13698364 115.13406372 105.14698364 115.13406372 104.12698364 C115.79406372 104.12698364 116.45406372 104.12698364 117.13406372 104.12698364 C117.40218872 103.48760864 117.67031372 102.84823364 117.94656372 102.18948364 C119.13406372 100.12698364 119.13406372 100.12698364 122.13406372 99.12698364 C122.13406372 98.46698364 122.13406372 97.80698364 122.13406372 97.12698364 C123.78938995 96.10832135 125.4566651 95.10887552 127.13406372 94.12698364 C127.46406372 93.46698364 127.79406372 92.80698364 128.13406372 92.12698364 C129.12406372 92.12698364 130.11406372 92.12698364 131.13406372 92.12698364 C131.13406372 91.46698364 131.13406372 90.80698364 131.13406372 90.12698364 C136.75906372 87.12698364 136.75906372 87.12698364 140.13406372 87.12698364 C140.13406372 86.46698364 140.13406372 85.80698364 140.13406372 85.12698364 C141.94220247 84.32540606 143.75586745 83.53629189 145.57156372 82.75198364 C146.58089966 82.31112427 147.5902356 81.87026489 148.63015747 81.41604614 C151.42330639 80.38846627 153.96248979 79.66722587 156.85305786 79.04641724 C157.65675308 78.87242401 158.4604483 78.69843079 159.28849792 78.51916504 C159.89753464 78.38974518 160.50657135 78.26032532 161.13406372 78.12698364 C160.07885529 78.12920425 159.02364685 78.13142487 157.9364624 78.13371277 C147.96203308 78.15403897 137.987608 78.16900131 128.01316261 78.17879581 C122.88597369 78.18400063 117.75880157 78.1910544 112.63162231 78.2024231 C107.67790946 78.21333765 102.7242127 78.21927855 97.77048874 78.22186089 C95.88639447 78.22369975 94.00230102 78.22729044 92.11821365 78.2327137 C81.00185708 78.2634211 70.14695332 78.23526572 59.19656372 76.06448364 C56.38910469 75.51107085 54.00415409 75.12698364 51.13406372 75.12698364 C51.13406372 74.46698364 51.13406372 73.80698364 51.13406372 73.12698364 C50.58879028 73.02901489 50.04351685 72.93104614 49.48171997 72.83010864 C44.34571266 71.81168668 39.8530742 70.29539275 35.12234497 68.05667114 C33.07144157 67.054041 33.07144157 67.054041 30.57156372 66.25198364 C26.66686315 64.44981415 23.49370252 61.78622317 20.13406372 59.12698364 C19.24976685 58.45280396 18.36546997 57.77862427 17.45437622 57.08401489 C11.11331683 52.12182853 5.59213285 46.88434344 1.13406372 40.12698364 C1.13406372 39.46698364 1.13406372 38.80698364 1.13406372 38.12698364 C0.47406372 38.12698364 -0.18593628 38.12698364 -0.86593628 38.12698364 C-1.19206909 37.26975708 -1.5182019 36.41253052 -1.85421753 35.52932739 C-2.29120972 34.38592896 -2.7282019 33.24253052 -3.17843628 32.06448364 C-3.63347534 30.86565552 -4.0885144 29.66682739 -4.55734253 28.43167114 C-5.83386822 25.05717087 -5.83386822 25.05717087 -7.61593628 21.68948364 C-9.79818077 15.47008684 -10.97918314 7.46672422 -8.86593628 1.12698364 C-5.94959678 -0.00009872 -3.0995951 0.00137651 0 0 Z " fill="#000C7B" transform="translate(815.8659362792969,150.87301635742188)"/>
<path d="M0 0 C1 1 1 1 1.11352539 2.81517029 C1.10567017 4.00192101 1.10567017 4.00192101 1.09765625 5.21264648 C1.09435303 6.10704941 1.0910498 7.00145233 1.08764648 7.92295837 C1.07934814 8.89584305 1.0710498 9.86872772 1.0625 10.87109375 C1.05682007 12.36008934 1.05682007 12.36008934 1.05102539 13.87916565 C1.03459962 18.14548653 1.00649183 22.41171356 0.97949219 26.67797852 C0.96147657 29.78401248 0.949337 32.89003111 0.9375 35.99609375 C0.92920166 36.96695419 0.92090332 37.93781464 0.91235352 38.93809509 C0.90905029 39.83565018 0.90574707 40.73320526 0.90234375 41.65795898 C0.89448853 42.84590309 0.89448853 42.84590309 0.88647461 44.05784607 C0.87674045 46.08202954 0.87674045 46.08202954 2 48 C1.66015625 50.1640625 1.66015625 50.1640625 1.0625 52.625 C0.86785156 53.44226563 0.67320312 54.25953125 0.47265625 55.1015625 C0.31667969 55.72804687 0.16070312 56.35453125 0 57 C0.66 57.33 1.32 57.66 2 58 C1.67 58.99 1.34 59.98 1 61 C0.90767027 62.53040877 0.86932392 64.06446636 0.8671875 65.59765625 C0.86589844 66.48130859 0.86460937 67.36496094 0.86328125 68.27539062 C0.86714844 69.19513672 0.87101562 70.11488281 0.875 71.0625 C0.87113281 71.98611328 0.86726563 72.90972656 0.86328125 73.86132812 C0.86457031 74.74369141 0.86585938 75.62605469 0.8671875 76.53515625 C0.86887939 77.74764038 0.86887939 77.74764038 0.87060547 78.98461914 C0.87335117 81.07085844 0.87335117 81.07085844 2 83 C1.68180925 85.33544647 1.34571222 87.66846861 1 90 C0.91254929 92.51672015 0.87374805 95.03541095 0.87301636 97.5536499 C0.87145637 98.28222615 0.86989638 99.01080241 0.86828911 99.76145673 C0.86432185 102.18702078 0.86745251 104.61252149 0.87060547 107.03808594 C0.8692492 108.78526343 0.867468 110.53244064 0.86529541 112.27961731 C0.86073849 117.02314423 0.86250601 121.76664936 0.8656745 126.51017666 C0.86821828 131.51063022 0.86585392 136.511082 0.86428833 141.51153564 C0.8624678 149.93819509 0.86486498 158.36484579 0.86962891 166.79150391 C0.87502185 176.44020928 0.87334504 186.08889336 0.8678025 195.73759818 C0.86320827 204.07792201 0.8626526 212.41823955 0.86524117 220.75856423 C0.86677618 225.71322999 0.86707728 230.6678859 0.86370468 235.62255096 C0.84945488 259.76668682 1.1436728 283.87012255 2 308 C-9.84765173 308.02312202 -21.69529814 308.04091437 -33.5429678 308.05181217 C-39.04370862 308.05704131 -44.54443405 308.06413951 -50.04516602 308.07543945 C-55.3489656 308.08626725 -60.65275035 308.0922766 -65.95656013 308.09487724 C-67.98485612 308.09673169 -70.01315126 308.10035267 -72.04144096 308.10573006 C-74.87196514 308.11293906 -77.70242718 308.113991 -80.53295898 308.11352539 C-81.38028091 308.11712067 -82.22760284 308.12071594 -83.1006012 308.12442017 C-88.88594784 308.11405216 -88.88594784 308.11405216 -90 307 C-90.10029318 303.86583169 -90.13437315 300.75361881 -90.12698364 297.61897278 C-90.12932363 296.12333574 -90.12932363 296.12333574 -90.13171089 294.59748381 C-90.13572571 291.2287929 -90.13252933 287.8601464 -90.12939453 284.49145508 C-90.1307484 282.08728 -90.13252825 279.68310514 -90.13470459 277.27893066 C-90.13880554 271.40890626 -90.13818508 265.53889356 -90.13529195 259.66886947 C-90.13303729 254.89729932 -90.13272567 250.12573275 -90.13381577 245.35416222 C-90.133969 244.67606654 -90.13412223 243.99797086 -90.13428011 243.29932683 C-90.13459982 241.92189775 -90.13492404 240.54446867 -90.1352527 239.1670396 C-90.1381081 226.23303547 -90.13482009 213.29903841 -90.12945233 200.36503544 C-90.12498928 189.26768609 -90.12575599 178.1703472 -90.13037109 167.07299805 C-90.13572448 154.19430849 -90.13782809 141.31562516 -90.13475883 128.43693465 C-90.13444028 127.06292864 -90.13412591 125.68892262 -90.13381577 124.31491661 C-90.13366149 123.63884886 -90.13350721 122.9627811 -90.13334826 122.26622644 C-90.13248503 117.50308817 -90.13394194 112.73995384 -90.13629532 107.97681618 C-90.13939555 101.56077395 -90.1371829 95.14474683 -90.13140106 88.72870636 C-90.13007768 86.37205475 -90.13046045 84.01540148 -90.13266373 81.65875053 C-90.13539189 78.44445964 -90.13197349 75.23023227 -90.12698364 72.01594543 C-90.12921436 71.08082227 -90.13144509 70.14569911 -90.13374341 69.18223888 C-90.12014379 64.67243812 -89.9199544 60.43840028 -89 56 C-88.34 56 -87.68 56 -87 56 C-86.9175 55.236875 -86.835 54.47375 -86.75 53.6875 C-85.32936898 46.70273082 -83.99479483 40.21946005 -78 36 C-77.67 35.01 -77.34 34.02 -77 33 C-74.5625 30.3125 -74.5625 30.3125 -72 28 C-71.34 28 -70.68 28 -70 28 C-69.67 27.01 -69.34 26.02 -69 25 C-68.34 25 -67.68 25 -67 25 C-67 24.34 -67 23.68 -67 23 C-61.52380952 18 -61.52380952 18 -59 18 C-59 17.34 -59 16.68 -59 16 C-57.35 15.67 -55.7 15.34 -54 15 C-54 14.34 -54 13.68 -54 13 C-51.66846087 11.89191174 -49.33489046 10.78848725 -47 9.6875 C-46.02740234 9.2244043 -46.02740234 9.2244043 -45.03515625 8.75195312 C-37.79350349 5.34622534 -30.78362093 2.66392633 -22.875 1.3125 C-22.14796875 1.18584961 -21.4209375 1.05919922 -20.671875 0.92871094 C-13.7942226 -0.18261704 -6.96258958 -0.55191259 0 0 Z " fill="#000C7B" transform="translate(482,151)"/>
<path d="M0 0 C0.66 0 1.32 0 2 0 C2 0.99 2 1.98 2 3 C1.34 3 0.68 3 0 3 C0 2.01 0 1.02 0 0 Z " fill="#000C7B" transform="translate(802,160)"/>
<path d="M0 0 C1 4 1 4 1 4 Z " fill="#000C7B" transform="translate(697,364)"/>
<path d="M0 0 C0.66 0 1.32 0 2 0 C2 0.66 2 1.32 2 2 C1.34 2 0.68 2 0 2 C0 1.34 0 0.68 0 0 Z " fill="#000C7B" transform="translate(196,357)"/>
<path d="" fill="#000C7B" transform="translate(0,0)"/>
<path d="" fill="#000C7B" transform="translate(0,0)"/>
<path d="" fill="#000C7B" transform="translate(0,0)"/>
<path d="" fill="#000C7B" transform="translate(0,0)"/>
<path d="" fill="#000C7B" transform="translate(0,0)"/>
<path d="" fill="#000C7B" transform="translate(0,0)"/>
<path d="" fill="#000C7B" transform="translate(0,0)"/>
<path d="" fill="#000C7B" transform="translate(0,0)"/>
<path d="M0 0 C2 1 2 1 2 1 Z " fill="#000C7B" transform="translate(653,459)"/>
<path d="M0 0 C2 1 2 1 2 1 Z " fill="#000C7B" transform="translate(643,459)"/>
<path d="M0 0 C2 1 2 1 2 1 Z " fill="#000C7B" transform="translate(594,459)"/>
<path d="M0 0 C2 1 2 1 2 1 Z " fill="#000C7B" transform="translate(584,459)"/>
<path d="M0 0 C2 1 2 1 2 1 Z " fill="#000C7B" transform="translate(574,459)"/>
<path d="M0 0 C2 1 2 1 2 1 Z " fill="#000C7B" transform="translate(569,459)"/>
<path d="M0 0 C2 1 2 1 2 1 Z " fill="#000C7B" transform="translate(559,459)"/>
<path d="M0 0 C2 1 2 1 2 1 Z " fill="#000C7B" transform="translate(549,459)"/>
<path d="M0 0 C2 1 2 1 2 1 Z " fill="#000C7B" transform="translate(332,459)"/>
<path d="M0 0 C2 1 2 1 2 1 Z " fill="#000C7B" transform="translate(322,459)"/>
<path d="M0 0 C2 1 2 1 2 1 Z " fill="#000C7B" transform="translate(154,459)"/>
<path d="M0 0 C2 1 2 1 2 1 Z " fill="#000C7B" transform="translate(129,459)"/>
<path d="M0 0 C2 1 2 1 2 1 Z " fill="#000C7B" transform="translate(119,459)"/>
<path d="M0 0 C2 1 2 1 2 1 Z " fill="#000C7B" transform="translate(723,455)"/>
<path d="" fill="#000C7B" transform="translate(0,0)"/>
<path d="" fill="#000C7B" transform="translate(0,0)"/>
<path d="" fill="#000C7B" transform="translate(0,0)"/>
<path d="" fill="#000C7B" transform="translate(0,0)"/>
<path d="" fill="#000C7B" transform="translate(0,0)"/>
<path d="" fill="#000C7B" transform="translate(0,0)"/>
<path d="" fill="#000C7B" transform="translate(0,0)"/>
<path d="" fill="#000C7B" transform="translate(0,0)"/>
<path d="" fill="#000C7B" transform="translate(0,0)"/>
<path d="" fill="#000C7B" transform="translate(0,0)"/>
<path d="" fill="#000C7B" transform="translate(0,0)"/>
<path d="" fill="#000C7B" transform="translate(0,0)"/>
<path d="" fill="#000C7B" transform="translate(0,0)"/>
<path d="" fill="#000C7B" transform="translate(0,0)"/>
<path d="" fill="#000C7B" transform="translate(0,0)"/>
<path d="" fill="#000C7B" transform="translate(0,0)"/>
<path d="" fill="#000C7B" transform="translate(0,0)"/>
<path d="" fill="#000C7B" transform="translate(0,0)"/>
<path d="" fill="#000C7B" transform="translate(0,0)"/>
<path d="M0 0 C2 1 2 1 2 1 Z " fill="#000C7B" transform="translate(1082,161)"/>
<path d="M0 0 C2 1 2 1 2 1 Z " fill="#000C7B" transform="translate(116,149)"/>
<path d="" fill="#000C7B" transform="translate(0,0)"/>
<path d="" fill="#000C7B" transform="translate(0,0)"/>
<path d="" fill="#000C7B" transform="translate(0,0)"/>
<path d="" fill="#000C7B" transform="translate(0,0)"/>
<path d="" fill="#000C7B" transform="translate(0,0)"/>
<path d="" fill="#000C7B" transform="translate(0,0)"/>
<path d="" fill="#000C7B" transform="translate(0,0)"/>
<path d="" fill="#000C7B" transform="translate(0,0)"/>
<path d="" fill="#000C7B" transform="translate(0,0)"/>
<path d="" fill="#000C7B" transform="translate(0,0)"/>
<path d="" fill="#000C7B" transform="translate(0,0)"/>
<path d="" fill="#000C7B" transform="translate(0,0)"/>
<path d="" fill="#000C7B" transform="translate(0,0)"/>
<path d="" fill="#000C7B" transform="translate(0,0)"/>
<path d="" fill="#000C7B" transform="translate(0,0)"/>
<path d="" fill="#000C7B" transform="translate(0,0)"/>
<path d="" fill="#000C7B" transform="translate(0,0)"/>
<path d="" fill="#000C7B" transform="translate(0,0)"/>
<path d="" fill="#000C7B" transform="translate(0,0)"/>
<path d="" fill="#000C7B" transform="translate(0,0)"/>
<path d="" fill="#000C7B" transform="translate(0,0)"/>
<path d="" fill="#000C7B" transform="translate(0,0)"/>
<path d="" fill="#000C7B" transform="translate(0,0)"/>
<path d="" fill="#000C7B" transform="translate(0,0)"/>
<path d="" fill="#000C7B" transform="translate(0,0)"/>
<path d="" fill="#000C7B" transform="translate(0,0)"/>
<path d="" fill="#000C7B" transform="translate(0,0)"/>
<path d="" fill="#000C7B" transform="translate(0,0)"/>
<path d="" fill="#000C7B" transform="translate(0,0)"/>
<path d="" fill="#000C7B" transform="translate(0,0)"/>
<path d="" fill="#000C7B" transform="translate(0,0)"/>
<path d="" fill="#000C7B" transform="translate(0,0)"/>
<path d="" fill="#000C7B" transform="translate(0,0)"/>
<path d="" fill="#000C7B" transform="translate(0,0)"/>
<path d="" fill="#000C7B" transform="translate(0,0)"/>
<path d="" fill="#000C7B" transform="translate(0,0)"/>
<path d="" fill="#000C7B" transform="translate(0,0)"/>
</svg>
